<?xml version="1.0" encoding="utf-8"?>
<!-- Generator: Adobe Illustrator 26.5.0, SVG Export Plug-In . SVG Version: 6.00 Build 0)  -->
<svg version="1.1" id="Logos" xmlns="http://www.w3.org/2000/svg" xmlns:xlink="http://www.w3.org/1999/xlink" x="0px" y="0px"
	 viewBox="0 0 1517.5 448.8" style="enable-background:new 0 0 1517.5 448.8;" xml:space="preserve">
<style type="text/css">
	.st0{fill:#142454;}
</style>
<g>
	<path class="st0" d="M857.9,44.8c-0.2-0.7-0.9-1.1-1.6-1.1h-104c-0.7,0-1.4,0.5-1.6,1.1L622.8,402.9c-0.4,1.1,0.4,2.3,1.6,2.3h81.7
		c0.7,0,1.4-0.5,1.6-1.1l24.9-70.5h136L894,404c0.2,0.7,0.9,1.1,1.6,1.1h88.1c1.2,0,2-1.2,1.6-2.3L857.9,44.8z M753.7,271.3
		l45.8-136.5h2.6l45.3,136.5H753.7z"/>
	<path class="st0" d="M1274.8,43.7H991c-1,0-1.7,0.8-1.7,1.7v65.1c0,1,0.8,1.7,1.7,1.7h97.4v291.3c0,1,0.8,1.7,1.7,1.7h85.1
		c1,0,1.7-0.8,1.7-1.7V112.2h97.9c1,0,1.7-0.8,1.7-1.7V45.4C1276.5,44.4,1275.7,43.7,1274.8,43.7z"/>
	<path class="st0" d="M1515.7,112.2c1,0,1.7-0.8,1.7-1.7V45.4c0-1-0.8-1.7-1.7-1.7h-170c-1,0-1.7,0.8-1.7,1.7v65.1
		c0,1,0.8,1.7,1.7,1.7h40.4v224.5h-40.4c-1,0-1.7,0.8-1.7,1.7v65.1c0,1,0.8,1.7,1.7,1.7h170c1,0,1.7-0.8,1.7-1.7v-65.1
		c0-1-0.8-1.7-1.7-1.7h-40.4V112.2H1515.7z"/>
	<path class="st0" d="M586.9,133c-7.9-19.5-19-35.8-33.2-49s-30.6-23.2-49-30c-18.4-6.9-38.4-10.3-59.8-10.3H296.9
		c-1,0-1.7,0.8-1.7,1.7v95.5c0,0,30.2-9.1,69.5-20.5c35.4-9.5,60.6-10.5,72.8-10.3c16,0.3,24.1,2.6,34.5,7.9
		c10.4,5.3,18.5,13.4,24.5,24.2c6,10.9,9,25.1,9,42.7v73.3c0,17.6-3,32.2-9,44c-6,11.8-14.1,20.6-24.5,26.6c-10.4,6-21.9,9-34.5,9
		l-75.9,0.2V202.3c0-2-1.9-3.5-3.9-2.9l-61.3,18.3c-0.7,0.2-1.2,0.9-1.2,1.6v184.1c0,1,0.8,1.7,1.7,1.7h147.9
		c21.4,0,41.4-3.9,59.8-11.6c18.4-7.7,34.8-18.9,49-33.5c14.2-14.6,25.3-32,33.2-52.2c7.9-20.2,11.9-42.9,11.9-68.2v-39.5
		C598.8,174.9,594.8,152.5,586.9,133z"/>
</g>
</svg>
