<?xml version="1.0" encoding="UTF-8"?>
<!DOCTYPE svg PUBLIC "-//W3C//DTD SVG 1.1//EN" "http://www.w3.org/Graphics/SVG/1.1/DTD/svg11.dtd">
<svg xmlns="http://www.w3.org/2000/svg" version="1.1" width="730px" height="205px" style="shape-rendering:geometricPrecision; text-rendering:geometricPrecision; image-rendering:optimizeQuality; fill-rule:evenodd; clip-rule:evenodd" xmlns:xlink="http://www.w3.org/1999/xlink">
<g><path style="opacity:1" fill="#fefefe" d="M -0.5,-0.5 C 242.833,-0.5 486.167,-0.5 729.5,-0.5C 729.5,67.8333 729.5,136.167 729.5,204.5C 486.167,204.5 242.833,204.5 -0.5,204.5C -0.5,136.167 -0.5,67.8333 -0.5,-0.5 Z"/></g>
<g><path style="opacity:1" fill="#eb118e" d="M 169.5,65.5 C 168.833,65.1667 168.167,64.8333 167.5,64.5C 149.523,42.5133 126.19,31.18 97.5,30.5C 108.113,23.1013 119.78,20.9346 132.5,24C 160.209,30.5833 179.209,46.7499 189.5,72.5C 183.029,69.5507 176.362,67.2174 169.5,65.5 Z"/></g>
<g><path style="opacity:1" fill="#2ab1ee" d="M 96.5,30.5 C 92.6562,32.922 88.9895,35.5887 85.5,38.5C 84.8333,38.5 84.1667,38.5 83.5,38.5C 79.364,37.6433 75.364,36.4766 71.5,35C 74.6107,32.3049 78.2773,30.9716 82.5,31C 87.1548,30.5008 91.8215,30.3342 96.5,30.5 Z"/></g>
<g><path style="opacity:1" fill="#323393" d="M 96.5,30.5 C 96.8333,30.5 97.1667,30.5 97.5,30.5C 126.19,31.18 149.523,42.5133 167.5,64.5C 156.408,62.8806 145.408,63.3806 134.5,66C 131.524,66.7048 128.858,67.8714 126.5,69.5C 126.167,69.5 125.833,69.5 125.5,69.5C 121.088,62.2517 115.422,56.0851 108.5,51C 101.059,46.2822 93.3927,42.1155 85.5,38.5C 88.9895,35.5887 92.6562,32.922 96.5,30.5 Z"/></g>
<g><path style="opacity:1" fill="#ec098d" d="M 83.5,38.5 C 84.1667,38.5 84.8333,38.5 85.5,38.5C 93.3927,42.1155 101.059,46.2822 108.5,51C 115.422,56.0851 121.088,62.2517 125.5,69.5C 104.684,77.3171 89.6844,91.3171 80.5,111.5C 80.1667,111.5 79.8333,111.5 79.5,111.5C 74.504,106.336 69.6706,101.003 65,95.5C 61.5346,89.5652 58.3679,83.5652 55.5,77.5C 55.5,76.8333 55.5,76.1667 55.5,75.5C 58.5342,68.4388 62.3676,61.7721 67,55.5C 72.0314,49.303 77.5314,43.6364 83.5,38.5 Z"/></g>
<g><path style="opacity:1" fill="#fff116" d="M 55.5,75.5 C 55.5,76.1667 55.5,76.8333 55.5,77.5C 49.39,91.0947 47.2234,105.428 49,120.5C 50.6509,132.446 54.1509,143.779 59.5,154.5C 52.9503,150.459 47.117,145.459 42,139.5C 28.3177,108.719 31.3177,79.7192 51,52.5C 51.53,60.3878 53.03,68.0544 55.5,75.5 Z"/></g>
<g><path style="opacity:1" fill="#0caeee" d="M 167.5,64.5 C 168.167,64.8333 168.833,65.1667 169.5,65.5C 175.969,75.4406 181.136,86.1073 185,97.5C 185.719,101.145 186.219,104.812 186.5,108.5C 173.455,121.082 157.788,128.082 139.5,129.5C 142.825,107.789 138.492,87.7893 126.5,69.5C 128.858,67.8714 131.524,66.7048 134.5,66C 145.408,63.3806 156.408,62.8806 167.5,64.5 Z"/></g>
<g><path style="opacity:1" fill="#fefefe" d="M 125.5,69.5 C 125.833,69.5 126.167,69.5 126.5,69.5C 138.492,87.7893 142.825,107.789 139.5,129.5C 117.156,131.673 97.4892,125.673 80.5,111.5C 89.6844,91.3171 104.684,77.3171 125.5,69.5 Z"/></g>
<g><path style="opacity:1" fill="#ed1f92" d="M 345.5,76.5 C 352.163,75.3326 354.997,77.9992 354,84.5C 351.029,88.0917 347.696,88.4251 344,85.5C 341.788,82.0213 342.288,79.0213 345.5,76.5 Z"/></g>
<g><path style="opacity:1" fill="#ed2393" d="M 606.5,76.5 C 615.871,76.0263 617.871,79.5263 612.5,87C 607.583,88.2113 604.583,86.378 603.5,81.5C 604.092,79.5775 605.092,77.9108 606.5,76.5 Z"/></g>
<g><path style="opacity:1" fill="#ed2426" d="M 55.5,77.5 C 58.3679,83.5652 61.5346,89.5652 65,95.5C 69.6706,101.003 74.504,106.336 79.5,111.5C 76.6304,119.281 74.4637,127.281 73,135.5C 72.3709,144.564 72.8709,153.564 74.5,162.5C 69.8068,160.153 65.1401,157.82 60.5,155.5C 60.5,154.833 60.1667,154.5 59.5,154.5C 54.1509,143.779 50.6509,132.446 49,120.5C 47.2234,105.428 49.39,91.0947 55.5,77.5 Z"/></g>
<g><path style="opacity:1" fill="#ec148f" d="M 479.5,81.5 C 492.777,79.4715 502.444,84.3048 508.5,96C 502.178,97.7263 496.845,96.3929 492.5,92C 477.016,89.1465 470.183,95.6465 472,111.5C 477.542,121.932 485.542,124.265 496,118.5C 497.64,116.421 498.806,114.088 499.5,111.5C 494.208,110.505 488.875,110.172 483.5,110.5C 483.5,108.167 483.5,105.833 483.5,103.5C 492.167,103.5 500.833,103.5 509.5,103.5C 510.008,119.822 502.174,128.822 486,130.5C 475.15,130.307 467.484,125.307 463,115.5C 458.652,99.1985 464.152,87.8652 479.5,81.5 Z"/></g>
<g><path style="opacity:1" fill="#ed1a90" d="M 215.5,81.5 C 224.994,80.8952 234.328,81.7286 243.5,84C 251.361,89.2209 253.195,96.0543 249,104.5C 246.628,107.37 243.795,109.703 240.5,111.5C 244.167,117.5 247.833,123.5 251.5,129.5C 247.878,130.659 244.211,130.825 240.5,130C 237.207,124.582 234.04,119.082 231,113.5C 229.556,111.845 227.722,111.178 225.5,111.5C 225.5,117.833 225.5,124.167 225.5,130.5C 222.167,130.5 218.833,130.5 215.5,130.5C 215.5,114.167 215.5,97.8333 215.5,81.5 Z"/></g>
<g><path style="opacity:1" fill="#fefbfd" d="M 225.5,90.5 C 229.514,90.3345 233.514,90.5012 237.5,91C 240.394,93.9087 241.227,97.4087 240,101.5C 235.528,104.056 230.695,105.056 225.5,104.5C 225.5,99.8333 225.5,95.1667 225.5,90.5 Z"/></g>
<g><path style="opacity:1" fill="#ed2292" d="M 559.5,91.5 C 562.833,91.5 566.167,91.5 569.5,91.5C 569.343,92.8734 569.51,94.2068 570,95.5C 578.183,89.7789 585.85,90.4456 593,97.5C 593.667,98.8333 594.333,100.167 595,101.5C 595.5,111.161 595.666,120.828 595.5,130.5C 592.167,130.5 588.833,130.5 585.5,130.5C 585.666,121.827 585.5,113.16 585,104.5C 583.68,101.099 581.18,99.7653 577.5,100.5C 573.82,99.7653 571.32,101.099 570,104.5C 569.5,113.16 569.334,121.827 569.5,130.5C 566.167,130.5 562.833,130.5 559.5,130.5C 559.5,117.5 559.5,104.5 559.5,91.5 Z"/></g>
<g><path style="opacity:1" fill="#ed1c90" d="M 634.5,91.5 C 651.49,89.8245 659.823,97.4912 659.5,114.5C 650.161,114.334 640.827,114.5 631.5,115C 635.044,123.318 640.377,124.652 647.5,119C 651.211,118.175 654.878,118.341 658.5,119.5C 653.314,129.257 645.314,132.757 634.5,130C 624.098,125.184 619.932,117.017 622,105.5C 623.926,98.7448 628.093,94.0781 634.5,91.5 Z"/></g>
<g><path style="opacity:1" fill="#ed1e91" d="M 675.5,91.5 C 683.966,89.6566 690.466,92.3233 695,99.5C 695.494,101.134 695.66,102.801 695.5,104.5C 692.428,104.817 689.428,104.484 686.5,103.5C 684.216,99.748 680.882,98.5814 676.5,100C 675.065,102.267 675.398,104.267 677.5,106C 683.387,107.339 688.887,109.506 694,112.5C 698.292,119.585 696.792,125.085 689.5,129C 680.322,132.429 672.489,130.596 666,123.5C 664.991,121.975 664.491,120.308 664.5,118.5C 669.447,117.848 673.78,119.015 677.5,122C 680.429,122.777 683.263,122.61 686,121.5C 686.72,119.888 686.554,118.388 685.5,117C 680.053,115.305 674.72,113.305 669.5,111C 665.329,107.146 664.496,102.646 667,97.5C 669.322,94.6047 672.155,92.6047 675.5,91.5 Z"/></g>
<g><path style="opacity:1" fill="#ed1b90" d="M 270.5,91.5 C 287.499,89.8345 295.832,97.5012 295.5,114.5C 286.143,114.168 276.81,114.502 267.5,115.5C 271.315,123.357 276.649,124.524 283.5,119C 287.167,118.333 290.833,118.333 294.5,119C 287.767,130.829 278.1,133.829 265.5,128C 256.651,119.35 255.151,109.516 261,98.5C 263.79,95.535 266.957,93.2016 270.5,91.5 Z"/></g>
<g><path style="opacity:1" fill="#ed2092" d="M 298.5,91.5 C 302.106,91.2108 305.606,91.5442 309,92.5C 312,101.5 315,110.5 318,119.5C 321.859,110.425 325.025,101.091 327.5,91.5C 331.226,91.1774 334.893,91.5108 338.5,92.5C 333.556,104.723 328.889,117.057 324.5,129.5C 320.285,130.798 316.118,130.798 312,129.5C 307.193,116.912 302.693,104.245 298.5,91.5 Z"/></g>
<g><path style="opacity:1" fill="#ec118f" d="M 343.5,91.5 C 346.833,91.5 350.167,91.5 353.5,91.5C 353.5,104.5 353.5,117.5 353.5,130.5C 350.167,130.5 346.833,130.5 343.5,130.5C 343.5,117.5 343.5,104.5 343.5,91.5 Z"/></g>
<g><path style="opacity:1" fill="#ed1c90" d="M 373.5,91.5 C 390.519,89.8558 398.853,97.5225 398.5,114.5C 389.143,114.168 379.81,114.502 370.5,115.5C 374.315,123.357 379.649,124.524 386.5,119C 390.167,118.333 393.833,118.333 397.5,119C 390.767,130.829 381.1,133.829 368.5,128C 359.732,119.314 358.232,109.48 364,98.5C 366.79,95.535 369.957,93.2016 373.5,91.5 Z"/></g>
<g><path style="opacity:1" fill="#ed2091" d="M 401.5,91.5 C 404.833,91.5 408.167,91.5 411.5,91.5C 413.219,100.924 415.385,110.258 418,119.5C 420.117,110.195 422.617,101.029 425.5,92C 428.882,91.1764 432.216,91.343 435.5,92.5C 437.638,100.911 439.972,109.245 442.5,117.5C 444.819,109.226 446.985,100.892 449,92.5C 452.125,91.2126 455.291,91.2126 458.5,92.5C 454.52,105.09 450.853,117.757 447.5,130.5C 443.833,130.5 440.167,130.5 436.5,130.5C 434.652,121.774 432.485,113.108 430,104.5C 427.205,113.012 425.039,121.679 423.5,130.5C 419.774,130.823 416.107,130.489 412.5,129.5C 408.423,116.938 404.757,104.271 401.5,91.5 Z"/></g>
<g><path style="opacity:1" fill="#ed1c90" d="M 527.5,91.5 C 544.153,89.6614 552.32,96.9947 552,113.5C 542.917,114.485 533.751,114.818 524.5,114.5C 525.682,121.267 529.682,123.767 536.5,122C 540.552,118.814 545.218,117.647 550.5,118.5C 549.092,124.409 545.426,128.243 539.5,130C 524.189,132.676 515.855,126.343 514.5,111C 514.483,101.518 518.817,95.0175 527.5,91.5 Z"/></g>
<g><path style="opacity:1" fill="#ed1c91" d="M 604.5,91.5 C 607.833,91.5 611.167,91.5 614.5,91.5C 614.5,104.5 614.5,117.5 614.5,130.5C 611.167,130.5 607.833,130.5 604.5,130.5C 604.5,117.5 604.5,104.5 604.5,91.5 Z"/></g>
<g><path style="opacity:1" fill="#fff223" d="M 187.5,123.5 C 187.5,118.5 187.5,113.5 187.5,108.5C 197.523,96.6611 199.356,98.6611 193,114.5C 191.643,117.898 189.81,120.898 187.5,123.5 Z"/></g>
<g><path style="opacity:1" fill="#fefafc" d="M 272.5,99.5 C 279.332,98.4043 283.665,101.071 285.5,107.5C 279.5,107.5 273.5,107.5 267.5,107.5C 268.151,104.197 269.818,101.53 272.5,99.5 Z"/></g>
<g><path style="opacity:1" fill="#fefafd" d="M 375.5,99.5 C 382.332,98.4043 386.665,101.071 388.5,107.5C 382.5,107.5 376.5,107.5 370.5,107.5C 370.351,106.448 370.517,105.448 371,104.5C 372.707,102.963 374.207,101.296 375.5,99.5 Z"/></g>
<g><path style="opacity:1" fill="#fefcfd" d="M 529.5,99.5 C 536.379,98.2511 540.379,100.918 541.5,107.5C 535.833,107.5 530.167,107.5 524.5,107.5C 525.151,104.197 526.818,101.53 529.5,99.5 Z"/></g>
<g><path style="opacity:1" fill="#fef9fc" d="M 636.5,99.5 C 643.467,98.1668 647.801,100.833 649.5,107.5C 643.5,107.5 637.5,107.5 631.5,107.5C 631.351,106.448 631.517,105.448 632,104.5C 633.707,102.963 635.207,101.296 636.5,99.5 Z"/></g>
<g><path style="opacity:1" fill="#0ca754" d="M 186.5,108.5 C 186.833,108.5 187.167,108.5 187.5,108.5C 187.5,113.5 187.5,118.5 187.5,123.5C 187.5,124.5 187.5,125.5 187.5,126.5C 171.527,149.778 149.527,163.778 121.5,168.5C 130.949,157.181 136.949,144.181 139.5,129.5C 157.788,128.082 173.455,121.082 186.5,108.5 Z"/></g>
<g><path style="opacity:1" fill="#fef10c" d="M 79.5,111.5 C 79.8333,111.5 80.1667,111.5 80.5,111.5C 97.4892,125.673 117.156,131.673 139.5,129.5C 136.949,144.181 130.949,157.181 121.5,168.5C 121.167,168.5 120.833,168.5 120.5,168.5C 112.535,169.569 104.535,169.736 96.5,169C 89.1256,167.263 81.7923,165.429 74.5,163.5C 74.5,163.167 74.5,162.833 74.5,162.5C 72.8709,153.564 72.3709,144.564 73,135.5C 74.4637,127.281 76.6304,119.281 79.5,111.5 Z"/></g>
<g><path style="opacity:1" fill="#12afee" d="M 187.5,126.5 C 186.819,136.572 183.986,145.905 179,154.5C 158.88,177.098 133.713,186.932 103.5,184C 110.612,180.387 116.279,175.22 120.5,168.5C 120.833,168.5 121.167,168.5 121.5,168.5C 149.527,163.778 171.527,149.778 187.5,126.5 Z"/></g>
<g><path style="opacity:1" fill="#ee2c94" d="M 60.5,155.5 C 65.1401,157.82 69.8068,160.153 74.5,162.5C 74.5,162.833 74.5,163.167 74.5,163.5C 76.3991,167.481 77.3991,171.481 77.5,175.5C 70.3985,170.064 64.7318,163.398 60.5,155.5 Z"/></g>
</svg>
