<?xml version="1.0" encoding="utf-8"?>
<!-- Generator: Adobe Illustrator 26.5.0, SVG Export Plug-In . SVG Version: 6.00 Build 0)  -->
<svg version="1.1" id="Layer_1" xmlns="http://www.w3.org/2000/svg" xmlns:xlink="http://www.w3.org/1999/xlink" x="0px" y="0px"
	 viewBox="0 0 512 512" style="enable-background:new 0 0 512 512;" xml:space="preserve">
<style type="text/css">
	.st0{fill:#1FC6DD;}
	.st1{fill:#3070CE;}
</style>
<g>
	<g>
		<path class="st0" d="M337.2,310c-53.2-8.9-89.4-48-89.4-48s16,51.4,55.1,96.8c3.8,4.4,10.2,5.8,15.5,3.2
			c15.5-7.5,24.2-22.6,28.9-34.3C350.5,320,345.5,311.4,337.2,310z"/>
		<g>
			<path class="st0" d="M156.4,191.1c-6.4-3.9-18.4-2.9-21.4,6c0,0.1-1.2,2.6-1.2,2.7c-0.9,2.9-2.7,10.1-2.9,13.4
				c-0.4,7.1,4.8,13.3,11.8,14.2c55.9,7.5,98.4,30.4,104.2,34.2C240.5,257.2,203.7,220.3,156.4,191.1z"/>
			<path class="st0" d="M247,261.5c0.5,0.4,0.8,0.6,0.8,0.6S247.6,261.9,247,261.5z"/>
		</g>
		<g>
			<path class="st0" d="M389.8,279c15.6-5.6,29.5,7.9,38.8,35.8c8.9,26.7,7.2,61.2-13.6,93.1c-21.5,32.9-53.6,48.3-97.6,47.3
				c-19.5-0.5-28.2-6.5-30.8-14.9c-4.6-14.5,5.2-31.8,21.1-41.1c12.4-7.2,41.8-21.1,53-40.3C384.6,317.8,371.3,285.6,389.8,279z"/>
		</g>
		<g>
			<path class="st0" d="M114.3,196.6c-6.2,16.2-0.5,31-3.1,42.3c-3.3,14.2-32.2,25.9-52.5,0c-9.9-12.5-10.9-44.7,1-65.1
				c15.4-26.5,35.6-35,56.1-34.8s26.4,13,24,21.5C137.5,169.1,123.1,173.6,114.3,196.6z"/>
		</g>
	</g>
	<g>
		<path class="st1" d="M300.6,141.6c-8.1-5.5-30.4-18.3-64.6-20.8c-6.8-0.5-11.8,6.3-9.3,12.7c25.3,65.9,21.1,128.7,21.1,128.7
			s38.9-42.9,73.4-84.5c4.1-4.9,4-12.1-0.3-17C314.3,152.8,307.4,146.1,300.6,141.6z"/>
		<path class="st1" d="M214.7,380.8c8.9-67.2,33.1-118.7,33.1-118.7s-34.3,18.8-66.3,39c-8.5,5.4-12.5,15.8-9.5,25.5
			c6.4,20.5,18.5,42.3,27.8,57.4C203.8,390.4,213.7,388.3,214.7,380.8z"/>
		<g>
			<path class="st1" d="M74.3,106.9c9.6,17.6,55.3,9.7,96.4-2.8c66.5-20.2,119.9-4.7,149.3,15.3c34.1,23.1,65,83.1,82.3,103.4
				s58.9,41,82.8,28c14.8-8.1,27.3-27.8,14.2-77.6c-13.1-49.8-68.4-133.3-162-160.6c-91.3-26.6-163.3-4-196.9,14
				C100.1,48.3,59.9,80.4,74.3,106.9z"/>
		</g>
		<g>
			<path class="st1" d="M168.1,387.2c8.5,13.2,25.5,36.6,51,52c32,19.3,37.6,47.6,17.9,61.7c-19.7,14.1-64.4,17.9-119.4-9.6
				c-50.4-25.2-88-79.1-95.5-96.8C3.7,351.6-3.4,308,34.5,285c37.7-22.8,88.9-4.5,104,28.6C151,341,150.2,359.5,168.1,387.2z"/>
		</g>
		<g>
			<circle class="st1" cx="247.8" cy="262.1" r="17.6"/>
		</g>
	</g>
</g>
</svg>
