<?xml version="1.0" encoding="utf-8"?>
<!-- Generator: Adobe Illustrator 26.5.0, SVG Export Plug-In . SVG Version: 6.00 Build 0)  -->
<svg version="1.1" id="Layer_1" xmlns="http://www.w3.org/2000/svg" xmlns:xlink="http://www.w3.org/1999/xlink" x="0px" y="0px"
	 viewBox="0 0 340 156" style="enable-background:new 0 0 340 156;" xml:space="preserve">
<style type="text/css">
	.st0{fill:#1FC6DD;}
	.st1{fill:#3070CE;}
</style>
<g>
	<g>
		<g>
			<path class="st0" d="M337.9,78.8V127c0,1.1-0.9,2-2,2h-10.7c-1.1,0-2-0.9-2-2V78.8c0-1.1,0.9-2,2-2h10.7
				C337,76.7,337.9,77.6,337.9,78.8z"/>
			<path class="st0" d="M337.9,57.2v10c0,1.4-1.3,2.3-2.6,2l-10.7-2.9c-0.9-0.2-1.5-1.1-1.5-2v-10c0-1.4,1.3-2.3,2.6-2l10.7,2.9
				C337.3,55.4,337.9,56.2,337.9,57.2z"/>
		</g>
		<g>
			<path class="st0" d="M93.1,92.9c-14.7-2.4-24.6-13.2-24.6-13.2s4.4,14.2,15.2,26.7c1.1,1.2,2.8,1.6,4.3,0.9
				c4.3-2.1,6.7-6.2,8-9.5C96.7,95.6,95.4,93.3,93.1,92.9z"/>
			<g>
				<path class="st0" d="M43.2,60.1c-1.8-1.1-5.1-0.8-5.9,1.6c0,0-0.3,0.7-0.3,0.8c-0.3,0.8-0.7,2.8-0.8,3.7c-0.1,2,1.3,3.7,3.3,3.9
					c15.4,2.1,27.1,8.4,28.7,9.4C66.4,78.3,56.3,68.2,43.2,60.1z"/>
				<path class="st0" d="M68.2,79.5c0.1,0.1,0.2,0.2,0.2,0.2S68.4,79.6,68.2,79.5z"/>
			</g>
			<g>
				<path class="st0" d="M107.6,84.3c4.3-1.5,8.1,2.2,10.7,9.9c2.4,7.4,2,16.9-3.8,25.7c-5.9,9.1-14.8,13.3-26.9,13
					c-5.4-0.1-7.8-1.8-8.5-4.1c-1.3-4,1.4-8.8,5.8-11.3c3.4-2,11.5-5.8,14.6-11.1C106.1,95,102.5,86.2,107.6,84.3z"/>
			</g>
			<g>
				<path class="st0" d="M31.6,61.6c-1.7,4.5-0.1,8.5-0.9,11.7c-0.9,3.9-8.9,7.1-14.5,0c-2.7-3.5-3-12.3,0.3-17.9
					c4.3-7.3,9.8-9.6,15.5-9.6s7.3,3.6,6.6,5.9C38,54,34,55.3,31.6,61.6z"/>
			</g>
		</g>
	</g>
	<g>
		<g>
			<path class="st1" d="M198.9,45.3V127c0,1.1-0.9,2-2,2h-9.2c-1,0-1.9-0.8-2-1.8l-0.8-6c-1.9,2.9-4.4,5.2-7.3,6.9
				c-3,1.7-6.3,2.5-10.1,2.5c-7.5,0-13.2-2.9-17.2-8.7c-4-5.8-6-13.6-6-23.6c0-6.2,1-11.8,3-16.7c2-4.9,4.9-8.7,8.6-11.5
				c3.7-2.8,8.1-4.2,13-4.2c5.9,0,11,2.2,15.4,6.6V44.1c0-1.2,1.1-2.2,2.3-2l10.7,1.2C198.2,43.4,198.9,44.2,198.9,45.3z
				 M178.5,117.7c2-1.3,3.9-3.3,5.7-5.9v-28c-1.8-2.2-3.6-3.8-5.4-4.9c-1.8-1.1-3.9-1.6-6.3-1.6c-3.9,0-7,1.8-9.3,5.3
				c-2.3,3.5-3.4,8.8-3.4,15.9c0,7.5,1,13,3,16.2c2,3.3,4.9,4.9,8.8,4.9C174.2,119.6,176.5,118.9,178.5,117.7z"/>
			<path class="st1" d="M263,118.1c0.5,0.8,1.2,1.4,2.1,1.9c0.8,0.5,1.2,1.5,0.9,2.4l-2.1,6.5c-0.3,1-1.3,1.6-2.3,1.4
				c-2.7-0.4-4.9-1.2-6.7-2.3c-2.2-1.4-3.9-3.5-5-6.4c-2.1,3.1-4.7,5.4-7.8,6.9c-3.1,1.5-6.6,2.3-10.5,2.3c-6.1,0-10.9-1.7-14.4-5.2
				c-3.5-3.5-5.3-8-5.3-13.6c0-6.6,2.4-11.7,7.2-15.2c4.8-3.5,11.7-5.3,20.6-5.3h7.6V88c0-3.9-0.9-6.7-2.7-8.3
				c-1.8-1.6-4.7-2.4-8.7-2.4c-4,0-8.8,0.9-14.3,2.6c-1.1,0.3-2.2-0.2-2.6-1.3l-2.2-6.2c-0.4-1.1,0.2-2.2,1.3-2.6
				c6.9-2.5,13.7-3.7,20.3-3.7c15.6,0,23.4,7,23.4,21v25.6C261.9,115.3,262.3,117,263,118.1z M247.3,112.5v-12.4h-6.1
				c-9.5,0-14.3,3.5-14.3,10.6c0,2.9,0.7,5.2,2.2,6.8c1.5,1.6,3.6,2.4,6.5,2.4C240.6,120,244.5,117.5,247.3,112.5z"/>
			<path class="st1" d="M313.9,124.5c0.5,1,0.2,2.2-0.8,2.8c-1.7,1-3.6,1.8-5.6,2.4c-2.7,0.8-5.4,1.2-8.1,1.2
				c-6-0.1-10.6-1.8-13.7-5.1c-3.1-3.3-4.7-8.3-4.7-14.8V78.6h-7.5c-1.1,0-2-0.9-2-2V70c0-1.1,0.9-2,2-2h7.5V56.3c0-1,0.8-1.9,1.8-2
				l10.7-1.3c1.2-0.1,2.3,0.8,2.3,2v12.9h11.8c1.2,0,2.2,1.1,2,2.3l-0.9,6.5c-0.1,1-1,1.8-2,1.8h-10.9v31.9c0,3,0.5,5.2,1.6,6.5
				c1,1.3,2.7,2,4.9,2c1.7,0,3.6-0.4,5.6-1.3c1-0.4,2.1-0.1,2.6,0.9L313.9,124.5z"/>
		</g>
		<g>
			<path class="st1" d="M83,46.5c-2.2-1.5-8.4-5-17.8-5.7c-1.9-0.1-3.2,1.7-2.6,3.5c7,18.2,5.8,35.5,5.8,35.5s10.7-11.8,20.2-23.3
				c1.1-1.4,1.1-3.3-0.1-4.7C86.8,49.6,84.9,47.7,83,46.5z"/>
			<path class="st1" d="M59.3,112.4c2.5-18.5,9.1-32.7,9.1-32.7S59,84.8,50.2,90.4c-2.4,1.5-3.5,4.4-2.6,7
				c1.8,5.6,5.1,11.7,7.6,15.8C56.3,115,59,114.5,59.3,112.4z"/>
			<g>
				<path class="st1" d="M20.6,36.9c2.6,4.8,15.2,2.7,26.6-0.8c18.3-5.6,33-1.3,41.2,4.2c9.4,6.4,17.9,22.9,22.7,28.5
					c4.8,5.6,16.2,11.3,22.8,7.7c4.1-2.2,7.5-7.7,3.9-21.4c-3.6-13.7-18.8-36.8-44.6-44.3c-25.2-7.3-45-1.1-54.3,3.9
					C27.7,20.8,16.6,29.6,20.6,36.9z"/>
			</g>
			<g>
				<path class="st1" d="M46.5,114.2c2.4,3.6,7,10.1,14.1,14.3c8.8,5.3,10.4,13.1,4.9,17s-17.8,4.9-32.9-2.6
					c-13.9-6.9-24.3-21.8-26.3-26.7c-5-11.8-7-23.9,3.5-30.2c10.4-6.3,24.5-1.3,28.7,7.9C41.8,101.4,41.5,106.5,46.5,114.2z"/>
			</g>
			<g>
				<circle class="st1" cx="68.4" cy="79.7" r="4.8"/>
			</g>
		</g>
	</g>
</g>
</svg>
