<?xml version="1.0" encoding="utf-8"?>
<!-- Generator: Adobe Illustrator 26.5.0, SVG Export Plug-In . SVG Version: 6.00 Build 0)  -->
<svg version="1.1" id="Layer_1" xmlns="http://www.w3.org/2000/svg" xmlns:xlink="http://www.w3.org/1999/xlink" x="0px" y="0px"
	 viewBox="0 0 512 512" style="enable-background:new 0 0 512 512;" xml:space="preserve">
<style type="text/css">
	.st0{fill:#142454;}
</style>
<g>
	<path class="st0" d="M235.8,181.1c-0.1-0.3-0.4-0.5-0.7-0.5h-43.4c-0.3,0-0.6,0.2-0.7,0.5l-53.3,149.4c-0.2,0.5,0.2,1,0.7,1h34.1
		c0.3,0,0.6-0.2,0.7-0.5l10.4-29.4h56.7l10.6,29.4c0.1,0.3,0.4,0.5,0.7,0.5h36.7c0.5,0,0.8-0.5,0.7-1L235.8,181.1z M192.3,275.5
		l19.1-56.9h1.1l18.9,56.9H192.3z"/>
	<path class="st0" d="M409.7,180.6H291.3c-0.4,0-0.7,0.3-0.7,0.7v27.2c0,0.4,0.3,0.7,0.7,0.7H332v121.5c0,0.4,0.3,0.7,0.7,0.7h35.5
		c0.4,0,0.7-0.3,0.7-0.7V209.2h40.8c0.4,0,0.7-0.3,0.7-0.7v-27.2C410.4,180.9,410.1,180.6,409.7,180.6z"/>
	<path class="st0" d="M510.2,209.2c0.4,0,0.7-0.3,0.7-0.7v-27.2c0-0.4-0.3-0.7-0.7-0.7h-70.9c-0.4,0-0.7,0.3-0.7,0.7v27.2
		c0,0.4,0.3,0.7,0.7,0.7h16.9v93.6h-16.9c-0.4,0-0.7,0.3-0.7,0.7v27.2c0,0.4,0.3,0.7,0.7,0.7h70.9c0.4,0,0.7-0.3,0.7-0.7v-27.2
		c0-0.4-0.3-0.7-0.7-0.7h-16.9v-93.6H510.2z"/>
	<path class="st0" d="M122.8,217.9c-3.3-8.1-7.9-14.9-13.8-20.4c-5.9-5.5-12.8-9.7-20.4-12.5c-7.7-2.9-16-4.3-24.9-4.3H1.8
		c-0.4,0-0.7,0.3-0.7,0.7v39.8c0,0,12.6-3.8,29-8.6c14.8-4,25.3-4.4,30.4-4.3c6.7,0.1,10.1,1.1,14.4,3.3s7.7,5.6,10.2,10.1
		c2.5,4.5,3.8,10.5,3.8,17.8v30.6c0,7.3-1.3,13.4-3.8,18.4c-2.5,4.9-5.9,8.6-10.2,11.1s-9.1,3.8-14.4,3.8l-31.7,0.1v-56.6
		c0-0.8-0.8-1.5-1.6-1.2l-25.6,7.6c-0.3,0.1-0.5,0.4-0.5,0.7v76.8c0,0.4,0.3,0.7,0.7,0.7h61.7c8.9,0,17.3-1.6,24.9-4.8
		s14.5-7.9,20.4-14c5.9-6.1,10.6-13.3,13.8-21.8c3.3-8.4,5-17.9,5-28.4v-16.5C127.7,235.3,126.1,226,122.8,217.9z"/>
</g>
</svg>
